<svg data-v-423bf9ae="" xmlns="http://www.w3.org/2000/svg" viewBox="0 0 282 107" class="iconLeftSlogan"><!----><!----><!----><g data-v-423bf9ae="" id="1751f4b3-f175-4894-bd51-4196cfd20ae4" fill="#34312E" transform="matrix(4.45103841192008,0,0,4.45103841192008,99.7637994939396,-12.77448020966687)"><path d="M0.56 7.14L0.56 6.03L1.57 6.03L1.57 5.24L1.57 5.24Q1.57 4.19 2.18 3.63L2.18 3.63L2.18 3.63Q2.74 3.12 3.64 3.12L3.64 3.12L3.64 3.12Q4.21 3.12 5.05 3.29L5.05 3.29L4.73 4.56L4.73 4.56Q4.34 4.42 4.03 4.42L4.03 4.42L4.03 4.42Q3.71 4.42 3.47 4.60L3.47 4.60L3.47 4.60Q3.23 4.77 3.23 5.25L3.23 5.25L3.23 6.03L4.48 6.03L4.48 7.14L3.23 7.14L3.23 12.84L1.57 12.84L1.57 7.14L0.56 7.14ZM6.57 12.84L6.57 6.02L8.22 6.02L8.22 12.84L6.57 12.84ZM6.37 3.84L6.37 3.84L6.37 3.84Q6.37 3.39 6.64 3.13L6.64 3.13L6.64 3.13Q6.90 2.87 7.39 2.87L7.39 2.87L7.39 2.87Q7.87 2.87 8.14 3.13L8.14 3.13L8.14 3.13Q8.41 3.39 8.41 3.84L8.41 3.84L8.41 3.84Q8.41 4.28 8.14 4.54L8.14 4.54L8.14 4.54Q7.87 4.80 7.39 4.80L7.39 4.80L7.39 4.80Q6.90 4.80 6.64 4.54L6.64 4.54L6.64 4.54Q6.37 4.28 6.37 3.84ZM11.61 10.05L11.61 10.05L11.61 10.05Q10.78 9.35 10.78 8.30L10.78 8.30L10.78 8.30Q10.78 7.20 11.65 6.51L11.65 6.51L11.65 6.51Q12.49 5.85 13.57 5.85L13.57 5.85L13.57 5.85Q14.66 5.85 15.39 6.26L15.39 6.26L15.39 6.26Q15.47 5.46 16.07 4.97L16.07 4.97L16.07 4.97Q16.66 4.48 17.46 4.48L17.46 4.48L17.37 6.06L17.37 6.06Q16.17 6.06 16.13 6.86L16.13 6.86L16.13 6.86Q16.65 7.50 16.65 8.18L16.65 8.18L16.65 8.18Q16.65 8.85 16.41 9.30L16.41 9.30L16.41 9.30Q16.17 9.76 15.76 10.07L15.76 10.07L15.76 10.07Q14.92 10.74 13.72 10.74L13.72 10.74L13.72 10.74Q13.03 10.74 12.47 10.53L12.47 10.53L12.47 10.53Q11.91 10.70 11.91 11.20L11.91 11.20L11.91 11.20Q11.91 11.83 12.98 11.83L12.98 11.83L15.26 11.83L15.26 11.83Q17.58 11.83 17.58 13.45L17.58 13.45L17.58 13.45Q17.58 14 17.31 14.53L17.31 14.53L17.31 14.53Q17.04 15.05 16.52 15.46L16.52 15.46L16.52 15.46Q15.37 16.35 13.64 16.35L13.64 16.35L13.64 16.35Q11.96 16.35 10.91 15.67L10.91 15.67L10.91 15.67Q9.93 15.01 9.93 14.06L9.93 14.06L9.93 14.06Q9.93 13.43 10.31 13.06L10.31 13.06L10.31 13.06Q10.70 12.68 11.33 12.59L11.33 12.59L11.33 12.59Q10.50 12.08 10.50 11.34L10.50 11.34L10.50 11.34Q10.50 10.85 10.81 10.52L10.81 10.52L10.81 10.52Q11.12 10.19 11.61 10.05ZM15.26 12.99L12.87 12.99L12.87 12.99Q11.55 13.05 11.55 13.99L11.55 13.99L11.55 13.99Q11.55 14.46 12.10 14.75L12.10 14.75L12.10 14.75Q12.66 15.04 13.41 15.04L13.41 15.04L13.41 15.04Q14.17 15.04 14.60 14.91L14.60 14.91L14.60 14.91Q15.02 14.78 15.32 14.57L15.32 14.57L15.32 14.57Q15.95 14.15 15.95 13.57L15.95 13.57L15.95 13.57Q15.95 13.31 15.77 13.15L15.77 13.15L15.77 13.15Q15.60 12.99 15.26 12.99L15.26 12.99ZM15.01 8.28L15.01 8.28L15.01 8.28Q15.01 7.71 14.69 7.36L14.69 7.36L14.69 7.36Q14.38 7.00 13.73 7.00L13.73 7.00L13.73 7.00Q13.09 7.00 12.75 7.36L12.75 7.36L12.75 7.36Q12.42 7.71 12.42 8.28L12.42 8.28L12.42 8.28Q12.42 8.85 12.75 9.21L12.75 9.21L12.75 9.21Q13.09 9.58 13.73 9.58L13.73 9.58L13.73 9.58Q14.38 9.58 14.69 9.21L14.69 9.21L14.69 9.21Q15.01 8.85 15.01 8.28ZM23.69 12.84L23.69 11.61L23.69 11.61Q23.04 12.96 21.62 12.96L21.62 12.96L21.62 12.96Q19.81 12.96 19.24 11.55L19.24 11.55L19.24 11.55Q19.03 11.06 19.03 10.36L19.03 10.36L19.03 6.02L20.68 6.02L20.68 10.19L20.68 10.19Q20.68 10.86 21 11.19L21 11.19L21 11.19Q21.32 11.52 21.79 11.52L21.79 11.52L21.79 11.52Q22.26 11.52 22.58 11.39L22.58 11.39L22.58 11.39Q22.90 11.26 23.14 10.99L23.14 10.99L23.14 10.99Q23.66 10.39 23.69 9.38L23.69 9.38L23.69 6.02L25.34 6.02L25.34 12.84L23.69 12.84ZM32.69 6.85L32.69 6.85Q33.04 7.29 33.22 7.88L33.22 7.88L33.22 7.88Q33.39 8.47 33.39 8.96L33.39 8.96L33.39 8.96Q33.39 9.45 33.33 9.84L33.33 9.84L28.94 9.84L28.94 9.84Q28.97 10.67 29.34 11.19L29.34 11.19L29.34 11.19Q29.72 11.70 30.49 11.70L30.49 11.70L30.49 11.70Q31.51 11.70 31.71 10.81L31.71 10.81L33.38 10.81L33.38 10.81Q33.21 11.83 32.44 12.42L32.44 12.42L32.44 12.42Q31.64 13.03 30.49 13.03L30.49 13.03L30.49 13.03Q29.15 13.03 28.24 12.05L28.24 12.05L28.24 12.05Q27.30 11.03 27.30 9.44L27.30 9.44L27.30 9.44Q27.30 7.80 28.24 6.80L28.24 6.80L28.24 6.80Q29.13 5.85 30.49 5.85L30.49 5.85L30.49 5.85Q31.91 5.85 32.69 6.85L32.69 6.85ZM30.51 7.17L30.51 7.17L30.51 7.17Q29.81 7.17 29.41 7.62L29.41 7.62L29.41 7.62Q29.02 8.08 28.95 8.79L28.95 8.79L31.85 8.79L31.85 8.79Q31.85 7.69 31.15 7.31L31.15 7.31L31.15 7.31Q30.88 7.17 30.51 7.17ZM40.11 6.85L40.11 6.85Q40.46 7.29 40.64 7.88L40.64 7.88L40.64 7.88Q40.81 8.47 40.81 8.96L40.81 8.96L40.81 8.96Q40.81 9.45 40.75 9.84L40.75 9.84L36.36 9.84L36.36 9.84Q36.39 10.67 36.76 11.19L36.76 11.19L36.76 11.19Q37.14 11.70 37.91 11.70L37.91 11.70L37.91 11.70Q38.93 11.70 39.13 10.81L39.13 10.81L40.80 10.81L40.80 10.81Q40.63 11.83 39.86 12.42L39.86 12.42L39.86 12.42Q39.06 13.03 37.91 13.03L37.91 13.03L37.91 13.03Q36.57 13.03 35.66 12.05L35.66 12.05L35.66 12.05Q34.72 11.03 34.72 9.44L34.72 9.44L34.72 9.44Q34.72 7.80 35.66 6.80L35.66 6.80L35.66 6.80Q36.55 5.85 37.91 5.85L37.91 5.85L37.91 5.85Q39.33 5.85 40.11 6.85L40.11 6.85ZM37.93 7.17L37.93 7.17L37.93 7.17Q37.23 7.17 36.83 7.62L36.83 7.62L36.83 7.62Q36.44 8.08 36.37 8.79L36.37 8.79L39.27 8.79L39.27 8.79Q39.27 7.69 38.57 7.31L38.57 7.31L38.57 7.31Q38.30 7.17 37.93 7.17Z"></path></g><defs data-v-423bf9ae=""><linearGradient data-v-423bf9ae="" gradientTransform="rotate(25)" id="be4a4d39-3029-4cea-abf9-b53d8a61865e" x1="0%" y1="0%" x2="100%" y2="0%"><stop data-v-423bf9ae="" offset="0%" style="stop-color: rgb(87, 93, 96); stop-opacity: 1;"></stop><stop data-v-423bf9ae="" offset="100%" style="stop-color: rgb(246, 225, 205); stop-opacity: 1;"></stop></linearGradient></defs><g data-v-423bf9ae="" id="00e6e4e3-87c6-4947-b484-d2b10f4626a4" transform="matrix(1.0868111504448785,0,0,1.0868111504448785,-13.255261890115804,-0.23894260335429607)" stroke="none" fill="url(#be4a4d39-3029-4cea-abf9-b53d8a61865e)"><g clip-rule="evenodd"><path d="M12.983 10.59l17.018 88.223-5.872-59.049 29.021-1.892-.054-9.883L64.549 1 53.622 18.977z"></path><path d="M59.389 54.548l5.16-53.541-8.74 39.716-19.612 1.045 1.57 20.462-7.766 36.583 12.057-39.899z"></path><path d="M62.8 67.182l.549-10.453-15.979 3.755-.032 11.797-17.337 26.532 21.68-27.616zM65.711 62.394l14.841-4.731 1.509-12.532-15.899 2.095zM72.07 44.502l10.988-1.417 1.581-10.278-8.079-.373L64.549 1l8.43 30.967z"></path><path d="M87.413 31.294l1.256-9.506-9.544-2.694L64.549 1l14.483 22.437-.422 7z"></path></g></g><!----><g data-v-423bf9ae="" id="5a93d565-dcfe-40a7-9df8-dfd3d78a3394" fill="#34312E" transform="matrix(0.40969454410741246,0,0,0.40969454410741246,101.96959926582517,58.996249289654344)"><path d="M9.94 7.63L5.88 7.63L5.88 8.11L9.46 8.11C9.38 9.32 8.98 10.32 8.27 11.09C7.56 11.87 6.63 12.26 5.46 12.26C4.17 12.26 3.13 11.82 2.34 10.94C1.54 10.06 1.15 8.98 1.15 7.70C1.15 6.40 1.55 5.32 2.36 4.45C3.17 3.57 4.20 3.14 5.46 3.14C6.21 3.14 6.90 3.31 7.54 3.65C8.18 4.00 8.69 4.47 9.07 5.05L9.46 4.75C9.03 4.11 8.47 3.61 7.78 3.24C7.10 2.87 6.33 2.69 5.46 2.69C4.11 2.69 2.98 3.17 2.06 4.13C1.16 5.09 0.70 6.28 0.70 7.70C0.70 9.12 1.16 10.31 2.06 11.27C2.98 12.23 4.11 12.71 5.46 12.71C6.83 12.71 7.92 12.22 8.73 11.23C9.54 10.25 9.94 9.05 9.94 7.63ZM19.39 7.48L23.73 7.48L23.73 7.08L19.39 7.08L19.39 3.21L24.01 3.21L24.01 2.80L18.97 2.80L18.97 12.60L24.01 12.60L24.01 12.19L19.39 12.19ZM32.41 3.21L34.93 3.21L34.93 12.60L35.35 12.60L35.35 3.21L37.87 3.21L37.87 2.80L32.41 2.80ZM56.63 3.21L59.15 3.21L59.15 12.60L59.57 12.60L59.57 3.21L62.09 3.21L62.09 2.80L56.63 2.80ZM70.63 2.80L70.63 12.60L71.05 12.60L71.05 7.62L77.28 7.62L77.28 12.60L77.70 12.60L77.70 2.80L77.28 2.80L77.28 7.18L71.05 7.18L71.05 2.80ZM87.64 7.48L91.98 7.48L91.98 7.08L87.64 7.08L87.64 3.21L92.26 3.21L92.26 2.80L87.22 2.80L87.22 12.60L92.26 12.60L92.26 12.19L87.64 12.19ZM111.86 3.21L114.38 3.21L114.38 12.60L114.80 12.60L114.80 3.21L117.32 3.21L117.32 2.80L111.86 2.80ZM125.16 7.70C125.16 6.38 125.57 5.29 126.38 4.41C127.19 3.53 128.22 3.09 129.46 3.09C130.70 3.09 131.73 3.53 132.54 4.41C133.35 5.29 133.76 6.38 133.76 7.70C133.76 9.02 133.35 10.11 132.54 10.99C131.73 11.87 130.70 12.31 129.46 12.31C128.22 12.31 127.19 11.87 126.38 10.99C125.57 10.11 125.16 9.02 125.16 7.70ZM124.74 7.70C124.74 9.16 125.19 10.36 126.08 11.30C126.97 12.24 128.10 12.71 129.46 12.71C130.82 12.71 131.95 12.24 132.84 11.30C133.73 10.36 134.18 9.16 134.18 7.70C134.18 6.24 133.73 5.04 132.84 4.10C131.95 3.16 130.82 2.69 129.46 2.69C128.10 2.69 126.97 3.16 126.08 4.10C125.19 5.04 124.74 6.24 124.74 7.70ZM148.23 2.80L145.22 8.16L142.34 2.80L141.81 2.80L145.00 8.62L145.00 12.60L145.45 12.60L145.45 8.61L148.76 2.80ZM156.86 11.16L155.27 14.69L155.48 14.81L157.28 11.34ZM178.49 7.48L182.83 7.48L182.83 7.08L178.49 7.08L178.49 3.21L183.11 3.21L183.11 2.80L178.07 2.80L178.07 12.60L183.11 12.60L183.11 12.19L178.49 12.19ZM199.42 2.80L199.42 11.79L191.93 2.45L191.93 12.60L192.35 12.60L192.35 3.61L199.84 12.95L199.84 2.80ZM206.05 14.63L205.86 14.91C205.99 15.08 206.21 15.25 206.53 15.42C206.85 15.59 207.17 15.68 207.51 15.68C208.15 15.68 208.60 15.50 208.85 15.15C209.10 14.79 209.23 14.22 209.23 13.44L209.23 2.80L208.88 2.80L208.88 13.30C208.88 14.08 208.77 14.62 208.56 14.90C208.35 15.19 208.00 15.33 207.49 15.33C207.00 15.33 206.52 15.10 206.05 14.63ZM218.61 7.70C218.61 6.38 219.02 5.29 219.83 4.41C220.64 3.53 221.67 3.09 222.91 3.09C224.15 3.09 225.18 3.53 225.99 4.41C226.80 5.29 227.21 6.38 227.21 7.70C227.21 9.02 226.80 10.11 225.99 10.99C225.18 11.87 224.15 12.31 222.91 12.31C221.67 12.31 220.64 11.87 219.83 10.99C219.02 10.11 218.61 9.02 218.61 7.70ZM218.19 7.70C218.19 9.16 218.64 10.36 219.53 11.30C220.42 12.24 221.55 12.71 222.91 12.71C224.27 12.71 225.40 12.24 226.29 11.30C227.18 10.36 227.63 9.16 227.63 7.70C227.63 6.24 227.18 5.04 226.29 4.10C225.40 3.16 224.27 2.69 222.91 2.69C221.55 2.69 220.42 3.16 219.53 4.10C218.64 5.04 218.19 6.24 218.19 7.70ZM241.68 2.80L238.67 8.16L235.79 2.80L235.26 2.80L238.45 8.62L238.45 12.60L238.90 12.60L238.90 8.61L242.21 2.80ZM260.90 3.21L263.42 3.21L263.42 12.60L263.84 12.60L263.84 3.21L266.36 3.21L266.36 2.80L260.90 2.80ZM274.90 2.80L274.90 12.60L275.32 12.60L275.32 7.62L281.55 7.62L281.55 12.60L281.97 12.60L281.97 2.80L281.55 2.80L281.55 7.18L275.32 7.18L275.32 2.80ZM291.91 7.48L296.25 7.48L296.25 7.08L291.91 7.08L291.91 3.21L296.53 3.21L296.53 2.80L291.49 2.80L291.49 12.60L296.53 12.60L296.53 12.19L291.91 12.19ZM314.37 14.63L314.17 14.91C314.30 15.08 314.53 15.25 314.85 15.42C315.16 15.59 315.49 15.68 315.83 15.68C316.47 15.68 316.92 15.50 317.17 15.15C317.42 14.79 317.55 14.22 317.55 13.44L317.55 2.80L317.20 2.80L317.20 13.30C317.20 14.08 317.09 14.62 316.88 14.90C316.67 15.19 316.32 15.33 315.81 15.33C315.32 15.33 314.84 15.10 314.37 14.63ZM326.93 7.70C326.93 6.38 327.33 5.29 328.15 4.41C328.96 3.53 329.98 3.09 331.23 3.09C332.47 3.09 333.49 3.53 334.31 4.41C335.12 5.29 335.52 6.38 335.52 7.70C335.52 9.02 335.12 10.11 334.31 10.99C333.49 11.87 332.47 12.31 331.23 12.31C329.98 12.31 328.96 11.87 328.15 10.99C327.33 10.11 326.93 9.02 326.93 7.70ZM326.51 7.70C326.51 9.16 326.95 10.36 327.84 11.30C328.74 12.24 329.86 12.71 331.23 12.71C332.59 12.71 333.72 12.24 334.61 11.30C335.50 10.36 335.94 9.16 335.94 7.70C335.94 6.24 335.50 5.04 334.61 4.10C333.72 3.16 332.59 2.69 331.23 2.69C329.86 2.69 328.74 3.16 327.84 4.10C326.95 5.04 326.51 6.24 326.51 7.70ZM350 2.80L346.99 8.16L344.11 2.80L343.57 2.80L346.77 8.62L346.77 12.60L347.21 12.60L347.21 8.61L350.53 2.80Z"></path></g></svg>